# xmcd CD database file
# Generated: Sat May 3 11:24:49 2003 by KSCD
# 
# Track frame offsets:
#       150
#       20844
#       40463
#       52380
#       72446
#       85962
#       102831
#       118946
#       135581
#       151024
#       168596
#       186253
#       201816
#       219023
#       232025
#       251587
#       263174
#       284817
#       301547
#       315169
#
# Disc length: 4422 seconds
#
# Revision: 1
# Processed by: cddbd v1.4PL0 Copyright (c) Steve Scherf et al.
# Submitted via: Kscd 1.3.3
#
DISCID=24114414
DTITLE=Garth Brooks - The Hits (+2)
DYEAR=1900
DGENRE=
TTITLE0=Ain't Goin' Down Til the Sun Comes Up
TTITLE1=Friends In Low Places
TTITLE2=Callin' Baton Rouge
TTITLE3=The River
TTITLE4=Much Too Young to Feel This Damn Old
TTITLE5=The Thunder Rolls
TTITLE6=American Honky-Tonk Bar Association
TTITLE7=If Tomorrow Never Comes
TTITLE8=Unanswered Prayers
TTITLE9=Standing Outside the Fire
TTITLE10=Rodeo
TTITLE11=What She's Doing Now
TTITLE12=We Shall Pass Free
TTITLE13=Papa Loves Moma
TTITLE14=Shameless
TTITLE15=Two of a Kind, Workin' on a Full House
TTITLE16=Tht Summer
TTITLE17=The Dance
TTITLE18=To Make You Feel My Love
TTITLE19=The Fever
EXTD=
EXTT0=
EXTT1=
EXTT2=
EXTT3=
EXTT4=
EXTT5=
EXTT6=
EXTT7=
EXTT8=
EXTT9=
EXTT10=
EXTT11=
EXTT12=
EXTT13=
EXTT14=
EXTT15=
EXTT16=
EXTT17=
EXTT18=
EXTT19=
PLAYORDER=
